<?xml version="1.0" encoding="utf-8"?>
<!-- Generator: Adobe Illustrator 24.0.2, SVG Export Plug-In . SVG Version: 6.00 Build 0)  -->
<svg version="1.1" xmlns="http://www.w3.org/2000/svg" xmlns:xlink="http://www.w3.org/1999/xlink" x="0px" y="0px"
	 viewBox="0 0 600 200" style="enable-background:new 0 0 600 200;" xml:space="preserve">
<style type="text/css">
	.st0{fill:#FFFFFF;}
	.st1{fill:#F7EDA6;}

	.st0{
		fill:#ffffff ;
		animation: updown 3s forwards;
		
	}
	.st1{
		fill:#ffffff ;
		animation: updown2 3.48s forwards;
		
	}
	@keyframes updown2{
		0%{
			transform:translate(-500px, -10px);	
			opacity:0	
		}
		100%{
			transform:translate(0px, -10px);	
			opacity:1	
		}
	}
	
	@keyframes updown{
		50%{
			transform:translateY(-55px);
			fill:rgb(255, 105, 30);;
			stroke-width:1;
			stroke-dashArray:50px;
		}
	}
	.st0:nth-child(1){animation-delay:.2s;}
	.st0:nth-child(2){animation-delay:.4s;}
	.st0:nth-child(3){animation-delay:.6s;}
	.st0:nth-child(4){animation-delay:.8s;}
	.st0:nth-child(5){animation-delay:1s;}
	.st0:nth-child(6){animation-delay:1.2s;}
	.st0:nth-child(7){animation-delay:1.4s;}
	.st0:nth-child(8){animation-delay:1.6s;}
	.st0:nth-child(9){animation-delay:1.8s;}

</style>
<g id="Layer_1">
	<g>
		<path class="st0" d="M67.3,121.5v8c-1.5,1.3-3.7,2.3-6.5,3.1c-2.8,0.8-5.7,1.2-8.7,1.2c-4.3,0-7.8-0.8-10.6-2.5
			c-3.1-1.9-4.7-4.7-4.7-8.3V73.6c0-1.1,0.8-2.2,2.3-3.3c1.5-1.1,3.6-2.1,6.3-3c5.7-1.9,12.3-2.9,19.6-2.9c10.2,0,18.3,2.5,24.3,7.6
			c6,5.1,9.1,11.9,9.1,20.4s-2.7,15.2-8.2,20c-5.2,4.5-12.5,6.8-21.8,6.8c-2.1,0-4.4-0.3-6.8-0.8c-2.4-0.5-4-0.9-4.9-1.3
			c-0.3,0.3-0.4,0.7-0.4,1.2C56.4,119.9,60.1,121,67.3,121.5z M66.1,97.9c0.1,0.1,0.5,0.2,1.2,0.2c0.7,0,1.2-0.3,1.5-0.8
			s0.5-1.4,0.5-2.6v-4c0-1.3-0.2-2.1-0.4-2.7c-0.3-0.5-0.8-0.8-1.5-0.8s-1.1,0.1-1.4,0.2c0,0.2,0.1,0.5,0.1,0.9V97.9z"/>
		<path class="st0" d="M134.9,134.6c-6.2,0-11.8-1.3-17-3.8c-5.2-2.6-9.3-6.5-12.5-11.7s-4.7-11.8-4.7-19.7
			c0-11.4,3.4-20.3,10.3-26.8c6.1-5.7,14-8.5,23.6-8.5c10.4,0,18.7,3.2,24.8,9.7c6.1,6.5,9.1,15,9.1,25.6c0,11.7-3.3,20.7-9.8,26.9
			C152.8,131.8,144.9,134.6,134.9,134.6z M137,96.9c0-3.5-0.2-5.9-0.5-7.2s-0.9-1.9-1.7-1.9c-0.5,0-1,0.2-1.4,0.5
			c0.1,0.6,0.2,1.5,0.3,2.5s0.2,3.3,0.2,6.7v3.4c0,2.4-0.1,4.1-0.2,5.2c-0.1,1.1-0.2,2-0.3,2.8c0,0.4-0.1,0.8-0.1,1.3
			c0.4,0.3,0.9,0.5,1.4,0.5c0.8,0,1.4-0.7,1.7-1.9c0.3-1.3,0.5-3.7,0.5-7.2V96.9z"/>
		<path class="st0" d="M227.4,107.7l9,9.2c-0.6,5.4-2.3,9.6-5.1,12.5c-2.8,2.9-6.7,4.4-11.6,4.4c-3.7,0-6.9-0.9-9.7-2.7
			c-3.5-2.2-6.1-5.8-7.9-10.6l-1.9-5.1c-1.5,0-3.3-0.2-5.5-0.6c-0.3,0.3-0.4,0.7-0.4,1.2c0,0.9,1.4,1.5,4.2,1.7l3,7.5v4.4
			c-4,2.8-9.1,4.2-15.4,4.2c-4.5,0-8.1-0.9-10.7-2.8s-4-4.5-4-8V73.6c0-1.5,1.4-3,4.2-4.4c2.8-1.4,6.5-2.6,11-3.5
			c4.6-0.9,9.1-1.3,13.6-1.3c10.4,0,18.6,2.1,24.4,6.4c6.2,4.5,9.3,10.8,9.3,18.9c0,4.7-1.3,8.6-3.9,11.9c-2.6,3.3-5.9,5.6-9.9,6.9
			c0,1.1,0.7,1.7,2,1.7C223.5,110.1,225.2,109.3,227.4,107.7z M200.5,95.8c0.1,0.1,0.5,0.2,1.2,0.2s1.2-0.3,1.5-0.8
			c0.4-0.5,0.5-1.4,0.5-2.6v-1.9c0-1.3-0.1-2.1-0.4-2.7c-0.3-0.5-0.8-0.8-1.5-0.8s-1.1,0.1-1.4,0.2c0,0.2,0.1,0.5,0.1,0.9
			L200.5,95.8L200.5,95.8z"/>
		<path class="st0" d="M281,92.3v36.6c-1.6,1.4-3.7,2.6-6.4,3.5c-2.7,0.9-5.9,1.4-9.7,1.4c-3.8,0-7.1-0.9-9.7-2.6
			c-3-1.8-4.5-4.4-4.5-7.8V89.9h-12.1c-2.5-3.6-3.8-7.5-3.8-11.7c0-2.9,0.5-5.4,1.4-7.5s2.1-3.8,3.4-5h53.9c1,1.6,1.8,3.5,2.5,5.7
			s1,4.4,1,6.6c0,4.1-0.9,7.1-2.7,9s-4.2,2.9-7.3,2.9h-15.3c-0.1,0.2-0.2,0.5-0.2,0.8c0,0.6,0.4,1,1.1,1.3c0.8,0.2,2.4,0.4,4.9,0.4
			C277.4,92.3,281,92.3,281,92.3z"/>
		<path class="st0" d="M329.2,115.7v13.2c-1.6,1.4-3.7,2.6-6.4,3.5s-5.9,1.4-9.7,1.4s-7.1-0.9-9.8-2.6c-3-1.8-4.5-4.5-4.5-7.9V70.5
			c0-3.2,7.8-4.8,23.5-4.8h30.6c1,1.8,1.8,3.9,2.2,6.2s0.7,4.3,0.7,6.1c0,7.9-3.5,11.9-10.5,11.9h-18c-1.3,0-2,0.6-2,1.7v0.4
			c0,0.2,0,0.3,0.1,0.4h23c1.8,3,2.7,6.4,2.7,10.2c0,4.7-1.1,8.4-3.2,11h-25.5c-0.3,0.3-0.4,0.6-0.4,0.9c0,0.6,0.4,0.9,1.3,1
			c0.9,0.1,1.8,0.2,2.9,0.2S328.3,115.7,329.2,115.7z"/>
		<path class="st0" d="M389.5,134.6c-6.2,0-11.9-1.3-17-3.8s-9.3-6.5-12.5-11.7s-4.7-11.8-4.7-19.7c0-11.4,3.4-20.3,10.3-26.8
			c6.1-5.7,14-8.5,23.6-8.5c10.5,0,18.7,3.2,24.8,9.7c6.1,6.5,9.1,15,9.1,25.6c0,11.7-3.3,20.7-9.8,26.9
			C407.4,131.8,399.5,134.6,389.5,134.6z M391.6,96.9c0-3.5-0.2-5.9-0.5-7.2s-0.9-1.9-1.7-1.9c-0.5,0-1,0.2-1.4,0.5
			c0.1,0.6,0.2,1.5,0.3,2.5c0.1,1,0.2,3.3,0.2,6.7v3.4c0,2.4,0,4.1-0.2,5.2c-0.1,1.1-0.2,2-0.3,2.8c0,0.4-0.1,0.8-0.1,1.3
			c0.4,0.3,0.9,0.5,1.4,0.5c0.8,0,1.4-0.7,1.7-1.9c0.3-1.3,0.5-3.7,0.5-7.2L391.6,96.9L391.6,96.9z"/>
		<path class="st0" d="M438,132.9c-3.9,0-6.8-1-8.9-3.1c-2.1-2.1-3.1-5.1-3.1-9.3V69.6c1.8-1.6,4.1-2.8,6.8-3.6
			c2.7-0.8,5.4-1.3,8.3-1.3c4.2,0,7.8,1,10.7,3.1c3.2,2.4,4.7,5.6,4.7,9.8v28.5c-2,0.2-3.9,0.7-5.7,1.6s-2.8,1.9-2.8,2.8
			c0,0.6,0.3,1.1,1,1.5c3.4-2.9,8.5-4.3,15.3-4.3h12.3c2.3,4,3.4,8.1,3.4,12.3c0,2.1-0.4,4.4-1.1,6.9c-0.7,2.5-1.7,4.5-2.9,5.8
			L438,132.9L438,132.9z"/>
		<path class="st0" d="M512.5,75.1v53.8c-1.6,1.4-3.7,2.6-6.4,3.5c-2.7,0.9-5.9,1.4-9.7,1.4s-7.1-0.9-9.7-2.6
			c-3-1.8-4.5-4.4-4.5-7.8V69.6c1.6-1.4,3.7-2.6,6.4-3.5c2.7-0.9,5.9-1.4,9.7-1.4s7.1,0.8,9.8,2.5C511,69.2,512.5,71.8,512.5,75.1z"
			/>
		<path class="st0" d="M549.5,134.6c-6.2,0-11.8-1.3-17-3.8c-5.2-2.6-9.3-6.5-12.5-11.7s-4.7-11.8-4.7-19.7
			c0-11.4,3.4-20.3,10.3-26.8c6.1-5.7,14-8.5,23.6-8.5c10.5,0,18.7,3.2,24.8,9.7c6.1,6.5,9.1,15,9.1,25.6c0,11.7-3.3,20.7-9.8,26.9
			C567.5,131.8,559.5,134.6,549.5,134.6z M551.6,96.9c0-3.5-0.2-5.9-0.5-7.2s-0.9-1.9-1.7-1.9c-0.5,0-1,0.2-1.4,0.5
			c0.1,0.6,0.2,1.5,0.3,2.5s0.2,3.3,0.2,6.7v3.4c0,2.4,0,4.1-0.2,5.2c-0.1,1.1-0.2,2-0.3,2.8c0,0.4-0.1,0.8-0.1,1.3
			c0.4,0.3,0.9,0.5,1.4,0.5c0.8,0,1.4-0.7,1.7-1.9c0.3-1.3,0.5-3.7,0.5-7.2L551.6,96.9L551.6,96.9z"/>
	</g>
</g>
<g id="star">
	<path class="st1" d="M513,40.7c0-3-1.7-5.6-4.1-7c0.8-4-1.5-8-5.4-9.3c-2.9-0.9-5.9-0.2-8,1.7c-3.5-2-8.1-1.1-10.5,2.3
		c-1.8,2.4-2,5.5-0.8,8.1c-3,2.7-3.5,7.3-1.1,10.7c1.8,2.4,4.7,3.6,7.5,3.3c1.7,3.7,5.9,5.6,9.9,4.3c2.9-0.9,4.9-3.3,5.4-6.1
		C509.9,48.3,513,44.9,513,40.7z"/>
</g>
</svg>
