<?xml version="1.0" encoding="utf-8"?>
<!-- Generator: Adobe Illustrator 24.0.2, SVG Export Plug-In . SVG Version: 6.00 Build 0)  -->
<svg version="1.1" id="Layer_1" xmlns="http://www.w3.org/2000/svg" xmlns:xlink="http://www.w3.org/1999/xlink" x="0px" y="0px"
	 viewBox="0 0 600 200" style="enable-background:new 0 0 600 200;" xml:space="preserve">
<style>
	.text{
		fill:#ffffff ;
		animation: updown 3s infinite;
		
	}
	
	@keyframes updown{
		50%{
			transform:translateY(-55px);
			fill:rgb(255, 105, 30);;
			stroke-width:1;
			stroke-dashArray:50px;
		}
	}
	.text:nth-child(1){animation-delay:.2s;}
	.text:nth-child(2){animation-delay:.4s;}
	.text:nth-child(3){animation-delay:.6s;}
	.text:nth-child(4){animation-delay:.8s;}
	.text:nth-child(5){animation-delay:1s;}
	.text:nth-child(6){animation-delay:1.2s;}
	.text:nth-child(7){animation-delay:1.4s;}
	.text:nth-child(8){animation-delay:1.6s;}
	.text:nth-child(9){animation-delay:1.8s;}

</style>
<g>
	<path class="text" d="M67.35,121.48v7.97c-1.53,1.29-3.68,2.34-6.46,3.15c-2.78,0.82-5.68,1.22-8.7,1.22c-4.31,0-7.83-0.83-10.57-2.5
		c-3.13-1.91-4.69-4.67-4.69-8.28V73.56c0-1.11,0.76-2.22,2.27-3.33c1.51-1.11,3.6-2.12,6.28-3.02c5.73-1.94,12.28-2.92,19.64-2.92
		c10.17,0,18.28,2.54,24.33,7.6c6.04,5.07,9.06,11.89,9.06,20.45c0,8.56-2.73,15.22-8.18,19.98c-5.24,4.52-12.52,6.77-21.83,6.77
		c-2.12,0-4.38-0.25-6.8-0.76c-2.41-0.5-4.04-0.95-4.87-1.33c-0.28,0.28-0.42,0.66-0.42,1.15
		C56.41,119.92,60.06,121.03,67.35,121.48z M66.05,97.94c0.14,0.1,0.54,0.16,1.2,0.16c0.66,0,1.16-0.26,1.51-0.78
		c0.35-0.52,0.52-1.37,0.52-2.55V90.8c0-1.25-0.15-2.14-0.44-2.68c-0.3-0.54-0.78-0.81-1.46-0.81s-1.14,0.07-1.38,0.21
		c0.03,0.17,0.05,0.47,0.05,0.89V97.94z"/>
	<path class="text" d="M134.91,134.55c-6.18,0-11.85-1.28-17.01-3.83c-5.16-2.55-9.32-6.46-12.48-11.72c-3.16-5.26-4.74-11.83-4.74-19.72
		c0-11.42,3.44-20.35,10.31-26.77c6.11-5.66,13.98-8.49,23.6-8.49c10.45,0,18.73,3.24,24.82,9.71c6.09,6.48,9.14,14.99,9.14,25.55
		c0,11.74-3.26,20.7-9.79,26.88C152.83,131.76,144.88,134.55,134.91,134.55z M137,96.95c0-3.47-0.16-5.86-0.47-7.16
		s-0.89-1.95-1.72-1.95c-0.52,0-0.99,0.17-1.41,0.52c0.07,0.63,0.17,1.46,0.31,2.5c0.14,1.04,0.21,3.26,0.21,6.67v3.39
		c0,2.36-0.05,4.08-0.16,5.16c-0.1,1.08-0.19,2-0.26,2.76c-0.04,0.42-0.07,0.83-0.1,1.25c0.42,0.35,0.89,0.52,1.41,0.52
		c0.83,0,1.41-0.65,1.72-1.95c0.31-1.3,0.47-3.69,0.47-7.16V96.95z"/>
	<path class="text" d="M227.38,107.73l9.01,9.22c-0.63,5.42-2.34,9.58-5.13,12.5c-2.8,2.92-6.66,4.38-11.59,4.38c-3.72,0-6.95-0.89-9.69-2.66
		c-3.51-2.22-6.13-5.76-7.87-10.63l-1.88-5.1c-1.46-0.03-3.3-0.23-5.52-0.57c-0.28,0.28-0.42,0.66-0.42,1.15
		c0,0.94,1.41,1.49,4.22,1.67l2.97,7.5v4.43c-3.99,2.81-9.12,4.22-15.37,4.22c-4.48,0-8.06-0.92-10.73-2.76
		c-2.67-1.84-4.01-4.51-4.01-8.02V73.56c0-1.53,1.41-3.01,4.22-4.45c2.81-1.44,6.49-2.6,11.04-3.49c4.55-0.89,9.1-1.33,13.65-1.33
		c10.42,0,18.56,2.14,24.43,6.41c6.18,4.48,9.27,10.78,9.27,18.91c0,4.65-1.31,8.64-3.93,11.95c-2.62,3.32-5.93,5.62-9.92,6.9
		c0,1.11,0.67,1.67,2.01,1.67C223.48,110.12,225.22,109.33,227.38,107.73z M200.5,95.85c0.14,0.1,0.54,0.16,1.2,0.16
		c0.66,0,1.16-0.26,1.51-0.78c0.35-0.52,0.52-1.37,0.52-2.55V90.8c0-1.25-0.15-2.14-0.44-2.68c-0.3-0.54-0.78-0.81-1.46-0.81
		s-1.14,0.07-1.38,0.21c0.03,0.17,0.05,0.47,0.05,0.89V95.85z"/>
	<path class="text" d="M280.98,92.31v36.62c-1.6,1.39-3.73,2.55-6.41,3.49c-2.67,0.94-5.92,1.41-9.74,1.41c-3.82,0-7.07-0.85-9.74-2.55
		c-3.02-1.84-4.53-4.44-4.53-7.81V89.91h-12.14c-2.5-3.58-3.75-7.48-3.75-11.72c0-2.88,0.46-5.39,1.38-7.53
		c0.92-2.14,2.06-3.79,3.41-4.97h53.86c1.01,1.56,1.84,3.46,2.5,5.68c0.66,2.22,0.99,4.43,0.99,6.62c0,4.1-0.9,7.11-2.71,9.04
		c-1.81,1.93-4.24,2.89-7.29,2.89h-15.26c-0.1,0.24-0.16,0.5-0.16,0.78c0,0.63,0.36,1.04,1.09,1.25c0.76,0.24,2.4,0.36,4.9,0.36
		H280.98z"/>
	<path class="text" d="M329.21,115.75v13.18c-1.6,1.39-3.72,2.55-6.38,3.49s-5.89,1.41-9.69,1.41c-3.8,0-7.08-0.85-9.82-2.55
		c-3.02-1.84-4.53-4.46-4.53-7.87V70.48c0-3.19,7.83-4.79,23.49-4.79h30.58c1.01,1.84,1.75,3.9,2.24,6.17
		c0.49,2.27,0.73,4.32,0.73,6.12c0,7.95-3.49,11.93-10.47,11.93h-18.02c-1.32,0-1.98,0.56-1.98,1.67v0.36c0,0.21,0.03,0.35,0.1,0.42
		h23.02c1.77,3.02,2.66,6.43,2.66,10.21c0,4.72-1.06,8.4-3.18,11.04h-25.52c-0.28,0.28-0.42,0.59-0.42,0.94
		c0,0.56,0.42,0.89,1.28,0.99c0.85,0.1,1.81,0.16,2.89,0.16S328.27,115.72,329.21,115.75z"/>
	<path class="text" d="M389.48,134.55c-6.18,0-11.85-1.28-17.01-3.83c-5.16-2.55-9.32-6.46-12.48-11.72c-3.16-5.26-4.74-11.83-4.74-19.72
		c0-11.42,3.44-20.35,10.31-26.77c6.11-5.66,13.98-8.49,23.6-8.49c10.45,0,18.73,3.24,24.82,9.71c6.09,6.48,9.14,14.99,9.14,25.55
		c0,11.74-3.26,20.7-9.79,26.88C407.4,131.76,399.45,134.55,389.48,134.55z M391.56,96.95c0-3.47-0.16-5.86-0.47-7.16
		s-0.89-1.95-1.72-1.95c-0.52,0-0.99,0.17-1.41,0.52c0.07,0.63,0.17,1.46,0.31,2.5c0.14,1.04,0.21,3.26,0.21,6.67v3.39
		c0,2.36-0.05,4.08-0.16,5.16c-0.1,1.08-0.19,2-0.26,2.76c-0.04,0.42-0.07,0.83-0.1,1.25c0.42,0.35,0.89,0.52,1.41,0.52
		c0.83,0,1.41-0.65,1.72-1.95c0.31-1.3,0.47-3.69,0.47-7.16V96.95z"/>
	<path class="text" d="M438.03,132.94c-3.85,0-6.83-1.02-8.93-3.07c-2.1-2.05-3.15-5.14-3.15-9.27V69.65c1.84-1.56,4.09-2.77,6.75-3.62
		c2.66-0.85,5.41-1.28,8.26-1.28c4.2,0,7.76,1.04,10.68,3.13c3.16,2.36,4.74,5.63,4.74,9.79v28.49c-1.95,0.17-3.85,0.72-5.73,1.64
		c-1.88,0.92-2.81,1.87-2.81,2.84c0,0.59,0.33,1.09,0.99,1.51c3.44-2.88,8.54-4.32,15.32-4.32h12.34c2.29,4.03,3.44,8.14,3.44,12.35
		c0,2.08-0.37,4.39-1.09,6.93c-0.73,2.54-1.7,4.48-2.92,5.83H438.03z"/>
	<path class="text" d="M512.52,75.12v53.81c-1.6,1.39-3.73,2.55-6.41,3.49c-2.67,0.94-5.92,1.41-9.74,1.41s-7.07-0.85-9.74-2.55
		c-3.02-1.84-4.53-4.44-4.53-7.81V69.65c1.6-1.39,3.73-2.55,6.41-3.49c2.67-0.94,5.9-1.41,9.69-1.41s7.07,0.83,9.84,2.5
		C511.02,69.16,512.52,71.79,512.52,75.12z"/>
	<path class="text" d="M549.55,134.55c-6.18,0-11.85-1.28-17.01-3.83c-5.16-2.55-9.32-6.46-12.48-11.72c-3.16-5.26-4.74-11.83-4.74-19.72
		c0-11.42,3.44-20.35,10.31-26.77c6.11-5.66,13.98-8.49,23.6-8.49c10.45,0,18.73,3.24,24.82,9.71c6.09,6.48,9.14,14.99,9.14,25.55
		c0,11.74-3.26,20.7-9.79,26.88C567.47,131.76,559.52,134.55,549.55,134.55z M551.64,96.95c0-3.47-0.16-5.86-0.47-7.16
		s-0.89-1.95-1.72-1.95c-0.52,0-0.99,0.17-1.41,0.52c0.07,0.63,0.17,1.46,0.31,2.5c0.14,1.04,0.21,3.26,0.21,6.67v3.39
		c0,2.36-0.05,4.08-0.16,5.16c-0.1,1.08-0.19,2-0.26,2.76c-0.04,0.42-0.07,0.83-0.1,1.25c0.42,0.35,0.89,0.52,1.41,0.52
		c0.83,0,1.41-0.65,1.72-1.95c0.31-1.3,0.47-3.69,0.47-7.16V96.95z"/>
</g>
</svg>
